<?xml version="1.0" encoding="utf-8"?>
<!-- Generator: Adobe Illustrator 22.0.0, SVG Export Plug-In . SVG Version: 6.00 Build 0)  -->
<svg version="1.1" id="Layer_1" xmlns="http://www.w3.org/2000/svg" xmlns:xlink="http://www.w3.org/1999/xlink" x="0px" y="0px"
	 viewBox="0 0 595.3 841.9" style="enable-background:new 0 0 595.3 841.9;" xml:space="preserve">
<style type="text/css">
	.st0{fill:#FFFFFF;}
	.st1{fill:#010101;}
	.st2{fill:#ED1C24;}
</style>
<g id="XMLID_1_">
	<g>
		<path class="st0" d="M422.8,174.2l71.8,70c-58.6,134-15.7,121.9-55.5,255.3c-41.3,138.8-135.4,171-141.3,172.9
			c-5.9-1.9-99.9-34.1-141.3-172.9c-39.7-133.3,3.1-121.3-55.4-255.3l72.3-70c0,0,36,22.5,124.4,22.5
			C386.1,196.8,422.8,174.2,422.8,174.2z"/>
		<path class="st1" d="M425.7,154l88.9,86.9c-65.6,119.7-13.1,180.2-82.4,320.4c-49.4,99.9-128.9,126.5-134.4,128.2
			c-5.4-1.7-85-28.3-134.4-128.2c-69.2-140.2-16.7-200.7-82.4-320.4l89.4-86.9c0,0,30.3,26.2,127.3,26.2
			C393.8,180.2,425.7,154,425.7,154z M494.6,244.3l-71.8-70c0,0-36.7,22.5-124.9,22.5c-88.4,0-124.4-22.5-124.4-22.5l-72.3,70
			c58.6,134,15.7,121.9,55.4,255.3C198,638.3,292,670.5,297.9,672.4c5.9-1.9,99.9-34.1,141.3-172.9
			C478.9,366.2,436,378.3,494.6,244.3z"/>
	</g>
	<g>
	</g>
</g>
<path class="st1" d="M368,309.5c-5.3-4.4-11.1-8.2-17.3-11.3v182.7c6.3-3.4,12.1-7.6,17.3-12.4V449c14.1-11.7,24.7-27.7,29.6-45.9
	c2.1-7.6,3.2-15.5,3.2-23.8C400.8,351.2,388,326.1,368,309.5z M368,420.9v-81.8c9.5,11,15.3,25.3,15.3,40.9S377.5,410,368,420.9z"/>
<path class="st1" d="M341.8,482l-14.5-44.1c8.8-7.3,14.5-18.3,14.5-30.6v-84.6c0-21.9-17.8-39.7-39.7-39.7h-9v211.8
	c0,0,9.2,0.1,16.7-0.5v-49.7l0.5,1.5l14.8,45.3c0,0,0,0,0,0c0.3-0.1,9.6-2.9,16.7-6.2c0.3-0.1,0.6-0.3,0.9-0.4L341.8,482z
	 M323.9,409.6c0,7.8-6.3,14.1-14.1,14.1V308.2c7.8,0,14.1,6.3,14.1,14.1V409.6z"/>
<path class="st1" d="M220.9,388.8c0,25.8,13,48.7,32.7,62.3v-26c-3.4-4-6.2-8.4-8.4-13.2c-2.2-5-3.8-10.3-4.5-16h23.4v61.2
	c5.5,2.6,11.4,4.6,17.6,5.8V314.7C247,321.6,220.9,352.1,220.9,388.8z M264.1,379.4h-23c0.9-5.7,2.7-11,5.3-16
	c2-3.9,4.4-7.6,7.3-10.9c3.1-3.6,6.6-6.9,10.5-9.6V379.4z"/>
<path class="st1" d="M210.3,388.8c0,43,30.8,78.7,71.4,86.1v18.8c-50.9-7.3-90.1-51.5-90.1-104.9c0-53.4,39.2-97.6,90.1-104.9v18.8
	C241.1,310.1,210.3,345.9,210.3,388.8z"/>
<path class="st1" d="M297.9,273.7c63.6,0,115.2,51.6,115.2,115.2s-51.6,115.2-115.2,115.2s-115.2-51.6-115.2-115.2
	S234.3,273.7,297.9,273.7 M297.9,271.5c-31.4,0-60.9,12.2-83,34.4s-34.4,51.7-34.4,83s12.2,60.9,34.4,83
	c22.2,22.2,51.7,34.4,83,34.4s60.9-12.2,83-34.4c22.2-22.2,34.4-51.7,34.4-83s-12.2-60.9-34.4-83S329.3,271.5,297.9,271.5
	L297.9,271.5z"/>
<g>
	<path class="st2" d="M246,623.4c-48.3-44.3-74.4-113.8-82.3-148.5l25.6-44.1c17.2,44.6,60.5,74.5,108.6,74.5
		c5.8,0,11.6-0.4,17.3-1.3L246,623.4z"/>
	<path class="st1" d="M189.1,433.3c17.9,43.9,61,73,108.7,73c5.1,0,10.2-0.3,15.2-1l-67.3,116.2c-20.9-19.4-39.3-45-54.8-76
		c-16.2-32.5-23.5-59.6-26-70.5L189.1,433.3 M189.6,428.1l-1.5,2.6l-25.6,44c8.1,35.7,34.4,105.9,83.8,150.4L315.9,505l1.5-2.5
		c-6.3,1.1-12.8,1.6-19.5,1.6C248.1,504.1,205.6,472.4,189.6,428.1L189.6,428.1z"/>
</g>
<g>
	<path class="st2" d="M406.3,346.6c-17.3-44.4-60.6-74-108.4-74c-6,0-11.9,0.5-17.8,1.4l36.7-63.3C342,209.9,388,206.4,420,191
		l48.8,47.6L406.3,346.6z"/>
	<path class="st1" d="M419.8,192.4l47.6,46.5l-60.9,105.2c-18-43.6-61.1-72.6-108.6-72.6c-5.2,0-10.5,0.3-15.6,1l35.2-60.8
		C342.7,211,387.9,207.5,419.8,192.4 M420.2,189.7c-32.1,15.8-79.2,19.2-104,19.8l-36.7,63.4l-1.5,2.5c6.5-1.1,13.1-1.7,19.9-1.7
		c49.7,0,92,31.5,108.2,75.5l1.5-2.5l62.7-108.2L420.2,189.7L420.2,189.7z"/>
</g>
<g>
	<g>
		<path class="st1" d="M175.6,192.4c39.1,18.4,101.3,19.8,119.6,19.8c0.8,0,1.6,0,2.3,0l-36.7,63.3l-1.3,2.2
			c-0.9,0.3-1.7,0.6-2.5,0.9c-46.2,16.8-77.2,61.2-77.2,110.4c0,6.7,0.6,13.4,1.7,19.9c0.1,0.8,0.3,1.7,0.5,2.6l-1.3,2.2l-21.2,36.5
			c-4.7-19.6-6.1-42.8-7.5-65.3c-1.2-18.8-2.4-38.3-5.5-55.7c-4.8-27-23.8-72.7-27.6-81.5L175.6,192.4 M175.2,189.7l-58.8,57.5
			c0,0,22.8,52.9,28,82.4c7.1,40.1,4.1,89.8,14.4,126.5l23.9-41.3l1.7-2.9l0,0c-0.2-1.1-0.4-2.3-0.6-3.4c-1.1-6.3-1.7-12.9-1.7-19.5
			c0-49.7,31.5-92.1,75.7-108.2c1.1-0.4,2.2-0.8,3.3-1.1l1.7-2.9l38.7-66.7c0,0-2.3,0.1-6.2,0.1C275.5,210,213.5,208.4,175.2,189.7
			L175.2,189.7z"/>
	</g>
</g>
<g>
	<g>
		<path class="st1" d="M469.2,267.6c-2.5,6-5.2,13.1-8,21.1c-7.8,22.6-17.1,56.8-17.1,91.6c0,34.5-7.9,90.7-30,144.5
			c-12.2,29.6-27.4,55.4-45.2,76.7c-20.4,24.4-44.3,42.8-71.1,54.8c-15.3-6.5-28.1-14.3-39-23.8l75.2-130.2l1.3-2.2
			c0.9-0.3,1.7-0.6,2.5-0.9c46.4-16.8,77.5-61.2,77.5-110.5c0-6.9-0.6-13.8-1.8-20.5c-0.2-0.9-0.3-1.8-0.5-2.6l1.3-2.2L469.2,267.6
			 M478.6,246.8l-66.2,115.7l-1.7,2.9c0.2,1.1,0.5,2.2,0.7,3.4c1.2,6.5,1.8,13.3,1.8,20.1c0,49.9-31.7,92.3-76,108.4
			c-1.1,0.4-2.2,0.8-3.2,1.1l-1.7,2.9L256,633.1c0,0,0,0,0,0c12.3,10.9,26.1,19.1,41.9,25.7c117.5-51.9,148.5-210.2,148.5-278.5
			c0-66.7,34-131.7,34-131.7L478.6,246.8L478.6,246.8z"/>
	</g>
</g>
</svg>
